# xmcd
#
# Track frame offsets: 
#        150
#        13645
#        24925
#        37975
#        48650
#        62175
#        74807
#        86562
#        89392
#        99942
#        114237
#        124437
#        142937
#        154390
#        164532
#        182667
#        199812
#        217350
#        228840
#        243262
#        254305
#
# Disc length: 3495 seconds
#
# Revision: 1
# Processed by: cddbd v1.5.2PL0 Copyright (c) Steve Scherf et al.
# Submitted via: ExactAudioCopy v1.0b1
#
DISCID=2a0da515
DTITLE=Buster Brown - Raise A Ruckus Tonight!!!
DYEAR=1993
DGENRE=Blues
TTITLE0=Fannie Mae
TTITLE1=Sugar Babe
TTITLE2=Don't Dog Your Woman
TTITLE3=No More
TTITLE4=Doctor Brown
TTITLE5=Raise A Ruckus Tonight
TTITLE6=John Henry
TTITLE7=Lost In A Dream (alt - false start)
TTITLE8=Lost In A Dream
TTITLE9=Blueberry Hill
TTITLE10=Good News
TTITLE11=St. Louis Blues
TTITLE12=Is You Is Or Is You Ain't My Baby
TTITLE13=Blues When It Rains
TTITLE14=When Things Go Wrong (It Hurts Me Too)
TTITLE15=Raise A Ruckus Tonight (alt)
TTITLE16=Sincerely
TTITLE17=The Madison Shuffle
TTITLE18=Gonna Love My Baby
TTITLE19=Fannie Mae (alt)
TTITLE20=I'm Goin', But I'll Be Back
EXTD=
EXTT0=
EXTT1=
EXTT2=
EXTT3=
EXTT4=
EXTT5=
EXTT6=
EXTT7=
EXTT8=
EXTT9=
EXTT10=
EXTT11=
EXTT12=
EXTT13=
EXTT14=
EXTT15=
EXTT16=
EXTT17=
EXTT18=
EXTT19=
EXTT20=
PLAYORDER=
